# xmcd CD database file generated by OrangeCD 6.5
#
# Track frame offsets:
#	150
#	19762
#	33598
#	54085
#	66393
#	90176
#	110055
#	122624
#	140719
#
# Disc length: 2375 seconds
#
# Revision: 5
# Processed by: cddbd v1.5.2PL0 Copyright (c) Steve Scherf et al.
# Submitted via: OrangeCD 6.5
#
DISCID=76094509
DTITLE=Breakout - Karate
DYEAR=2005
DGENRE=Blues
TTITLE0=Daje Ci prog
TTITLE1=Takie moje miasto jest
TTITLE2=Noca puka ktos
TTITLE3=Powiedzmy to
TTITLE4=Rzeka dziecinstwa
TTITLE5=Jest gdzies taki dom
TTITLE6=Sliska dzisiaj droga
TTITLE7=Zaprowadzic Ciebie musze tam
TTITLE8=Karate
EXTD=
EXTT0=
EXTT1=
EXTT2=
EXTT3=
EXTT4=
EXTT5=
EXTT6=
EXTT7=
EXTT8=
PLAYORDER=
